<?xml version="1.0" encoding="UTF-8" standalone="no"?>
<svg
   version="1.1"
   id="Layer_1"
   x="0px"
   y="0px"
   width="745.10309"
   viewBox="0 0 745.10309 667.71265"
   enable-background="new 0 0 1024 1024"
   xml:space="preserve"
   sodipodi:docname="nyaru.svg"
   inkscape:version="1.4 (e7c3feb1, 2024-10-09)"
   height="667.71265"
   xmlns:inkscape="http://www.inkscape.org/namespaces/inkscape"
   xmlns:sodipodi="http://sodipodi.sourceforge.net/DTD/sodipodi-0.dtd"
   xmlns:xlink="http://www.w3.org/1999/xlink"
   xmlns="http://www.w3.org/2000/svg"
   xmlns:svg="http://www.w3.org/2000/svg"><defs
   id="defs2"><linearGradient
     id="linearGradient21"
     inkscape:collect="always"><stop
       style="stop-color:#9d0000;stop-opacity:1;"
       offset="0"
       id="stop20" /><stop
       style="stop-color:#401be4;stop-opacity:1;"
       offset="1"
       id="stop21" /></linearGradient><linearGradient
     id="linearGradient18"
     inkscape:collect="always"><stop
       style="stop-color:#fe0000;stop-opacity:1;"
       offset="0"
       id="stop18" /><stop
       style="stop-color:#2600fe;stop-opacity:1;"
       offset="1"
       id="stop19" /></linearGradient><linearGradient
     inkscape:collect="always"
     xlink:href="#linearGradient18"
     id="linearGradient19"
     x1="130.40916"
     y1="503.47101"
     x2="875.51227"
     y2="503.47101"
     gradientUnits="userSpaceOnUse"
     gradientTransform="translate(-130.40917,-169.61468)" /><linearGradient
     inkscape:collect="always"
     xlink:href="#linearGradient21"
     id="linearGradient20"
     x1="519.58899"
     y1="792.04962"
     x2="636.35254"
     y2="792.04962"
     gradientUnits="userSpaceOnUse"
     gradientTransform="translate(-130.40917,-169.61468)" /></defs><sodipodi:namedview
   id="namedview2"
   pagecolor="#505050"
   bordercolor="#eeeeee"
   borderopacity="0"
   inkscape:showpageshadow="0"
   inkscape:pageopacity="0"
   inkscape:pagecheckerboard="0"
   inkscape:deskcolor="#505050"
   inkscape:zoom="0.44606401"
   inkscape:cx="452.84981"
   inkscape:cy="620.98711"
   inkscape:window-width="1920"
   inkscape:window-height="1027"
   inkscape:window-x="0"
   inkscape:window-y="25"
   inkscape:window-maximized="0"
   inkscape:current-layer="Layer_1" />
<path
   fill="#000000"
   opacity="1"
   stroke="none"
   d="m 664.73432,589.58448 c 17.01618,-29.94519 31.46039,-60.56659 39.91858,-93.77838 4.45062,-17.47571 7.25568,-35.2085 7.43616,-53.17005 0.19489,-19.39404 -4.35608,-38.17322 -9.2865,-56.87451 -23.12872,-87.72675 -46.04443,-175.50964 -69.00421,-263.28088 -5.8869,-22.5047 -11.65259,-45.04113 -17.49213,-67.55823 -0.40698,-1.569 -0.96667,-3.09839 -1.39453,-4.45354 -1.59649,-0.42463 -2.19024,0.52753 -2.87085,1.18883 -14.10229,13.70175 -28.1416,27.46883 -42.3042,41.10788 -5.97741,5.7565 -8.94653,12.49588 -8.89782,20.89029 0.0503,8.6503 -0.12958,17.35483 -1.05573,25.9443 -1.10309,10.23172 -8.18951,16.35764 -16.63013,21.07761 -3.36377,1.88098 -7.10669,2.78427 -10.85675,3.58002 -5.06756,1.07538 -5.93621,0.45422 -5.95312,-4.73728 -0.0509,-15.6661 -0.14441,-31.33389 0.0492,-46.99771 0.0528,-4.27551 -1.18359,-6.02176 -5.65674,-5.83661 -6.98779,0.28928 -13.99932,0.19446 -20.99499,0.0247 -3.63104,-0.088 -4.96942,1.18549 -4.92078,4.93134 0.17542,13.49731 -0.0327,26.9992 0.0917,40.49765 0.0919,9.96326 -5.05072,16.96603 -12.39972,22.75403 -4.08118,3.21426 -8.32282,2.17727 -11.95038,-0.72159 -7.03784,-5.62409 -11.67572,-12.45188 -11.409,-22.14176 0.36206,-13.15631 -0.0456,-26.33224 0.16285,-39.49524 0.0669,-4.22183 -1.04554,-6.06372 -5.59589,-5.8583 -6.98547,0.31524 -14.0025,0.26327 -20.9931,0.009 -4.02698,-0.1463 -5.17249,1.46209 -5.13752,5.26925 0.14246,15.4982 0.0932,30.99857 0.0485,46.49796 -0.019,6.6246 -0.28882,6.68869 -6.89698,5.42264 -10.38952,-1.99054 -18.43139,-7.35392 -24.03839,-16.31601 -2.34491,-3.74805 -3.55072,-7.81287 -3.48382,-12.30637 0.11151,-7.49814 0.004,-14.99924 0.0304,-22.49893 0.0235,-6.62903 -1.91443,-12.67603 -6.69525,-17.21799 -15.34512,-14.57844 -30.478,-29.36357 -45.18414,-44.58617 -0.32361,-0.33491 -0.85636,-0.46777 -1.61786,-0.86517 -2.49454,5.52222 -3.64438,11.34888 -5.20343,17.04367 -3.99338,14.5865 -7.68515,29.26702 -12.1572,43.70561 -1.86126,6.00937 -0.95895,10.94611 1.87363,16.14429 10.43722,19.15366 23.3768,36.4245 38.68823,51.93411 7.26428,7.35831 14.83841,14.37357 23.02362,20.71497 1.26123,0.97717 2.99738,1.58728 3.56372,4.4743 -35.62927,7.07422 -59.27252,-11.02279 -79.57318,-37.19329 -2.63607,3.48452 -2.75982,7.40283 -3.86285,10.90597 -1.34433,4.26944 -1.78861,8.85214 -3.39169,13.00214 -1.72443,4.46408 -0.67252,7.83224 1.90676,11.51529 15.76691,22.5141 36.4953,39.0624 60.9198,51.26123 1.42234,0.71038 3.18183,0.95855 4.48542,3.14084 -13.97492,6.42456 -28.01975,7.20202 -42.59501,3.14492 -14.36062,-3.99737 -25.85269,-12.55822 -36.97921,-23.14581 -3.07444,9.97345 -5.80088,19.29694 -7.55194,28.88214 -0.50043,2.73944 1.74704,4.17481 3.42379,5.71851 19.63449,18.07672 42.36823,30.38922 68.34592,36.65262 1.77255,0.42736 3.51852,0.97998 5.24826,1.55966 0.4245,0.14224 0.73624,0.62079 1.93491,1.68881 -14.4581,8.85645 -29.47968,11.71945 -45.82733,9.82904 -16.36789,-1.89276 -30.53687,-8.79398 -44.04932,-18.13138 -2.58646,2.95716 -3.38184,6.59488 -5.04523,9.75214 -2.55981,4.85867 -4.6962,9.97638 -7.63513,14.58716 -2.07245,3.25143 -1.48328,5.16601 1.00046,7.68139 13.06643,13.23273 28.81759,22.51563 45.11856,30.99537 14.77579,7.68627 29.84152,14.86907 43.21954,24.95819 20.54892,15.49713 34.72187,35.25329 39.75788,60.83209 0.86145,4.37555 2.22345,8.93908 0.92981,14.46081 -3.65448,-4.80908 -6.64862,-9.11169 -10.00718,-13.10809 -17.56253,-20.89825 -39.15176,-36.41553 -63.88723,-47.78082 -20.56745,-9.4502 -41.73981,-17.68329 -61.01938,-29.76563 -4.91208,-3.07837 -9.65525,-6.42627 -14.62338,-9.74884 -2.46766,2.09509 -3.17533,4.91693 -4.39188,7.38672 -4.85901,9.86475 -8.9939,20.04211 -13.15027,30.21869 -1.5564,3.81085 -0.6571,5.98199 2.28964,8.4989 12.96945,11.07752 28.01056,18.51154 43.444,25.31677 15.93421,7.02582 31.09647,15.20697 43.60599,27.70252 10.9707,10.95837 16.39566,24.26642 18.11292,39.35455 -1.95426,1.02857 -2.69181,-0.46344 -3.52036,-1.2995 -18.16702,-18.33044 -40.45663,-29.44604 -64.63361,-37.47845 -16.11346,-5.3534 -32.03057,-11.29047 -46.86865,-19.73426 -0.98709,-0.5617 -2.09378,-0.9132 -3.57803,-1.5476 -2.40146,5.26428 -2.50156,10.81537 -2.98242,16.06591 -2.57907,28.16193 0.17532,55.82197 9.86782,82.49817 12.5015,34.40705 32.88535,62.68634 65.19416,81.24244 12.20083,7.00738 25.211,10.95666 39.54956,10.10565 6.79138,-0.40314 12.55108,3.90789 14.80579,9.85602 2.78424,7.34521 1.57437,14.31958 -3.49479,18.87023 -3.89807,3.49946 -8.63485,4.7616 -13.8276,4.76038 -26.49927,-0.006 -52.99851,0.0612 -79.49778,0.0703 -48.49874,0.0165 -96.99758,0.0663 -145.496135,-0.0266 -11.97861,-0.0229 -23.93416,-0.62805 -35.58315,-3.96258 C 23.924545,653.47484 0.63831515,619.59672 0.01298515,585.40867 -0.71695485,545.50248 29.417485,506.88005 73.529665,500.15001 c 17.35754,-2.64808 34.091585,0.2135 50.623885,5.27722 15.42057,4.72326 30.84415,9.43713 46.28208,14.10302 1.86752,0.56446 3.74795,1.35987 6.46701,0.87525 -0.73166,-6.01367 -1.56479,-11.99597 -2.16944,-18.0014 -1.53726,-15.26819 -1.56942,-30.53693 -6e-5,-45.81916 4.76084,-46.3601 23.92832,-87.56634 45.50031,-127.95117 11.60239,-21.72064 23.87997,-43.14389 29.96966,-67.35156 6.56433,-26.09451 13.48359,-52.09989 20.02729,-78.19944 13.5325,-53.97427 28.99344,-107.44537 42.07553,-161.53665 0.66217,-2.7379 1.57013,-5.43805 2.60528,-8.06039 5.6886,-14.41034044 19.67844,-17.9601004 30.73627,-7.1903504 C 361.99721,22.2191 377.80404,38.7003 393.83962,54.94648 c 4.68207,4.74355 9.33301,9.5181 14.0412,14.23555 3.75006,3.75751 8.38049,5.15175 13.62146,5.13314 36.33093,-0.12911 72.66211,-0.21541 108.99316,-0.28574 7.39801,-0.0143 13.4491,-2.72223 18.67499,-8.03476 19.164,-19.4816 38.48883,-38.8051 57.75214,-58.1890604 3.81512,-3.83909 7.92279,-7.19667004 13.59662,-7.72145004 8.96258,-0.82895 16.39593,4.46526004 19.39544,14.64896044 3.5661,12.10702 6.57263,24.37982 9.77075,36.59413 24.52735,93.67462 49.0575,187.34851 73.54956,281.03235 5.79633,22.17139 11.86628,44.2832 17.05762,66.59747 5.50763,23.67414 5.98584,47.66431 2.95545,71.82929 -5.54163,44.18921 -22.98273,84.16443 -43.01246,123.23089 -8.43182,16.4455 -17.17034,32.75983 -28.44531,47.52753 -13.23596,17.33624 -30.86346,25.92883 -52.57525,26.01105 -29.3321,0.11108 -58.66498,0.0515 -87.99744,0.003 -14.19818,-0.0236 -22.00177,-7.83558 -21.95538,-21.98719 0.0309,-9.44598 -0.69709,-18.89935 2.7843,-28.11383 8.72241,-23.0863 25.42883,-36.09198 49.57318,-39.41497 30.86615,-4.24805 59.06152,19.3515 63.43579,48.04559 1.19824,7.86041 3.84912,8.8689 10.67267,4.28296 4.6485,-3.12415 7.93762,-7.56342 11.06543,-12.1023 6.33551,-9.19366 12.23816,-18.66113 17.94079,-28.68481 M 194.18858,572.16382 c -1.37342,-2.85101 -2.92981,-5.63134 -4.06531,-8.57415 -1.00253,-2.59821 -2.72284,-3.95197 -5.30182,-4.72779 -22.28195,-6.70263 -44.27768,-14.36157 -66.78848,-20.29101 -13.47226,-3.54871 -26.907205,-6.99457 -41.210565,-4.92475 -33.04187,4.7815 -53.17613,43.06922 -37.57121,72.47974 9.65533,18.19733 25.20668,27.70392 45.75723,27.81201 48.829355,0.25696 97.661015,0.082 146.491735,0.0453 1.91864,-10e-4 3.93622,0.40924 6.37976,-0.90924 -18.08349,-17.67701 -32.47455,-37.72334 -43.69134,-60.91011 z"
   id="path1"
   style="fill:url(#linearGradient19);fill-opacity:1" />
<path
   fill="#000000"
   opacity="1"
   stroke="none"
   d="m 505.94337,646.21955 c -0.26984,13.60754 -7.85767,21.39172 -20.91064,21.43536 -24.98884,0.0837 -49.97919,0.0613 -74.96741,-0.1214 -12.96027,-0.0947 -20.61658,-8.10254 -20.82739,-21.1355 -0.16437,-10.15972 -0.2179,-20.27105 3.27978,-30.05926 9.97156,-27.90558 36.04334,-40.20624 57.47949,-39.1023 27.53491,1.41804 49.13104,20.43427 54.93579,47.11695 1.54761,7.11395 0.73871,14.2586 1.01038,21.86615 z"
   id="path2"
   style="fill:url(#linearGradient20);fill-opacity:1" />
</svg>
